<svg xmlns="http://www.w3.org/2000/svg" xmlns:xlink="http://www.w3.org/1999/xlink" width="500" zoomAndPan="magnify" viewBox="0 0 375 374.999991" height="500" preserveAspectRatio="xMidYMid meet" version="1.0"><defs><g/><clipPath id="8d6cb0dc6b"><path d="M 217.328125 168.9375 L 244.765625 168.9375 L 244.765625 186.925781 L 217.328125 186.925781 Z M 217.328125 168.9375 " clip-rule="nonzero"/></clipPath><clipPath id="3b1c90a960"><path d="M 0.328125 0.9375 L 27.765625 0.9375 L 27.765625 18.925781 L 0.328125 18.925781 Z M 0.328125 0.9375 " clip-rule="nonzero"/></clipPath><clipPath id="c896a96692"><rect x="0" width="28" y="0" height="19"/></clipPath><clipPath id="5e9cef597d"><path d="M 94 175 L 99 175 L 99 177.996094 L 94 177.996094 Z M 94 175 " clip-rule="nonzero"/></clipPath><clipPath id="4708d07020"><path d="M 90.613281 154 L 102 154 L 102 174 L 90.613281 174 Z M 90.613281 154 " clip-rule="nonzero"/></clipPath><clipPath id="6449fbaf23"><path d="M 272 175 L 277 175 L 277 177.996094 L 272 177.996094 Z M 272 175 " clip-rule="nonzero"/></clipPath><clipPath id="9acd2c1117"><path d="M 269 154 L 280.363281 154 L 280.363281 174 L 269 174 Z M 269 154 " clip-rule="nonzero"/></clipPath></defs><g fill="#a88aed" fill-opacity="1"><g transform="translate(69.087731, 219.628212)"><g><path d="M 25.03125 -33.3125 C 29.101562 -33.3125 32.378906 -32.101562 34.859375 -29.6875 C 37.335938 -27.269531 38.578125 -23.625 38.578125 -18.75 L 38.578125 0 L 27.09375 0 L 27.09375 -16.875 C 27.09375 -21.34375 25.296875 -23.578125 21.703125 -23.578125 C 19.734375 -23.578125 18.148438 -22.929688 16.953125 -21.640625 C 15.765625 -20.359375 15.171875 -18.425781 15.171875 -15.84375 L 15.171875 0 L 3.6875 0 L 3.6875 -32.78125 L 14.640625 -32.78125 L 14.640625 -29.203125 C 15.921875 -30.535156 17.445312 -31.550781 19.21875 -32.25 C 21 -32.957031 22.9375 -33.3125 25.03125 -33.3125 Z M 25.03125 -33.3125 "/></g></g></g><g fill="#a88aed" fill-opacity="1"><g transform="translate(106.570024, 219.628212)"><g><path d="M 37.1875 -16.328125 C 37.1875 -16.242188 37.125 -15.296875 37 -13.484375 L 13.1875 -13.484375 C 13.664062 -11.785156 14.597656 -10.484375 15.984375 -9.578125 C 17.378906 -8.671875 19.125 -8.21875 21.21875 -8.21875 C 22.789062 -8.21875 24.148438 -8.4375 25.296875 -8.875 C 26.453125 -9.320312 27.613281 -10.050781 28.78125 -11.0625 L 34.828125 -4.78125 C 31.640625 -1.226562 26.984375 0.546875 20.859375 0.546875 C 17.023438 0.546875 13.65625 -0.175781 10.75 -1.625 C 7.851562 -3.082031 5.609375 -5.097656 4.015625 -7.671875 C 2.421875 -10.253906 1.625 -13.179688 1.625 -16.453125 C 1.625 -19.671875 2.398438 -22.5625 3.953125 -25.125 C 5.503906 -27.6875 7.648438 -29.691406 10.390625 -31.140625 C 13.140625 -32.585938 16.226562 -33.3125 19.65625 -33.3125 C 22.914062 -33.3125 25.875 -32.632812 28.53125 -31.28125 C 31.195312 -29.9375 33.304688 -27.984375 34.859375 -25.421875 C 36.410156 -22.867188 37.1875 -19.835938 37.1875 -16.328125 Z M 19.71875 -25.15625 C 17.9375 -25.15625 16.453125 -24.648438 15.265625 -23.640625 C 14.078125 -22.628906 13.320312 -21.257812 13 -19.53125 L 26.421875 -19.53125 C 26.097656 -21.257812 25.34375 -22.628906 24.15625 -23.640625 C 22.96875 -24.648438 21.488281 -25.15625 19.71875 -25.15625 Z M 19.71875 -25.15625 "/></g></g></g><g fill="#a88aed" fill-opacity="1"><g transform="translate(140.787639, 219.628212)"><g><path d="M 20.140625 0.546875 C 16.628906 0.546875 13.460938 -0.175781 10.640625 -1.625 C 7.816406 -3.082031 5.609375 -5.097656 4.015625 -7.671875 C 2.421875 -10.253906 1.625 -13.179688 1.625 -16.453125 C 1.625 -19.671875 2.421875 -22.570312 4.015625 -25.15625 C 5.609375 -27.738281 7.804688 -29.742188 10.609375 -31.171875 C 13.410156 -32.597656 16.585938 -33.3125 20.140625 -33.3125 C 23.679688 -33.3125 26.863281 -32.597656 29.6875 -31.171875 C 32.507812 -29.742188 34.707031 -27.75 36.28125 -25.1875 C 37.851562 -22.625 38.640625 -19.710938 38.640625 -16.453125 C 38.640625 -13.179688 37.851562 -10.253906 36.28125 -7.671875 C 34.707031 -5.097656 32.507812 -3.082031 29.6875 -1.625 C 26.863281 -0.175781 23.679688 0.546875 20.140625 0.546875 Z M 20.140625 -8.59375 C 22.148438 -8.59375 23.800781 -9.285156 25.09375 -10.671875 C 26.382812 -12.066406 27.03125 -13.992188 27.03125 -16.453125 C 27.03125 -18.867188 26.382812 -20.757812 25.09375 -22.125 C 23.800781 -23.5 22.148438 -24.1875 20.140625 -24.1875 C 18.117188 -24.1875 16.460938 -23.5 15.171875 -22.125 C 13.890625 -20.757812 13.25 -18.867188 13.25 -16.453125 C 13.25 -13.992188 13.890625 -12.066406 15.171875 -10.671875 C 16.460938 -9.285156 18.117188 -8.59375 20.140625 -8.59375 Z M 20.140625 -8.59375 "/></g></g></g><g fill="#a88aed" fill-opacity="1"><g transform="translate(176.456215, 219.628212)"><g><path d="M 26.296875 -1.328125 C 25.335938 -0.722656 24.160156 -0.257812 22.765625 0.0625 C 21.378906 0.382812 19.898438 0.546875 18.328125 0.546875 C 14.046875 0.546875 10.753906 -0.5 8.453125 -2.59375 C 6.160156 -4.695312 5.015625 -7.820312 5.015625 -11.96875 L 5.015625 -22.984375 L 0.234375 -22.984375 L 0.234375 -31.5625 L 5.015625 -31.5625 L 5.015625 -40.09375 L 16.515625 -40.09375 L 16.515625 -31.5625 L 24 -31.5625 L 24 -22.984375 L 16.515625 -22.984375 L 16.515625 -12.09375 C 16.515625 -10.925781 16.820312 -10.007812 17.4375 -9.34375 C 18.0625 -8.675781 18.898438 -8.34375 19.953125 -8.34375 C 21.285156 -8.34375 22.457031 -8.6875 23.46875 -9.375 Z M 26.296875 -1.328125 "/></g></g></g><g fill="#a88aed" fill-opacity="1"><g transform="translate(198.884711, 219.628212)"><g><path d="M 14.640625 -28.84375 C 15.804688 -30.332031 17.328125 -31.445312 19.203125 -32.1875 C 21.078125 -32.9375 23.222656 -33.3125 25.640625 -33.3125 L 25.640625 -22.984375 C 24.585938 -23.097656 23.71875 -23.15625 23.03125 -23.15625 C 20.570312 -23.15625 18.644531 -22.488281 17.25 -21.15625 C 15.863281 -19.832031 15.171875 -17.800781 15.171875 -15.0625 L 15.171875 0 L 3.6875 0 L 3.6875 -32.78125 L 14.640625 -32.78125 Z M 14.640625 -28.84375 "/></g></g></g><g fill="#a88aed" fill-opacity="1"><g transform="translate(221.071382, 219.628212)"><g><path d="M 3.6875 -32.78125 L 15.171875 -32.78125 L 15.171875 0 L 3.6875 0 Z M 9.4375 -36.40625 C 7.34375 -36.40625 5.648438 -36.988281 4.359375 -38.15625 C 3.066406 -39.320312 2.421875 -40.773438 2.421875 -42.515625 C 2.421875 -44.242188 3.066406 -45.691406 4.359375 -46.859375 C 5.648438 -48.023438 7.34375 -48.609375 9.4375 -48.609375 C 11.53125 -48.609375 13.222656 -48.054688 14.515625 -46.953125 C 15.804688 -45.847656 16.453125 -44.425781 16.453125 -42.6875 C 16.453125 -40.875 15.804688 -39.375 14.515625 -38.1875 C 13.222656 -37 11.53125 -36.40625 9.4375 -36.40625 Z M 9.4375 -36.40625 "/></g></g></g><g fill="#a88aed" fill-opacity="1"><g transform="translate(235.39864, 219.628212)"><g><path d="M 24.3125 -33.3125 C 27.289062 -33.3125 30 -32.613281 32.4375 -31.21875 C 34.875 -29.832031 36.804688 -27.859375 38.234375 -25.296875 C 39.671875 -22.742188 40.390625 -19.773438 40.390625 -16.390625 C 40.390625 -13.003906 39.671875 -10.03125 38.234375 -7.46875 C 36.804688 -4.90625 34.875 -2.925781 32.4375 -1.53125 C 30 -0.144531 27.289062 0.546875 24.3125 0.546875 C 20.476562 0.546875 17.429688 -0.601562 15.171875 -2.90625 L 15.171875 11.734375 L 3.6875 11.734375 L 3.6875 -32.78125 L 14.640625 -32.78125 L 14.640625 -29.515625 C 16.773438 -32.046875 20 -33.3125 24.3125 -33.3125 Z M 21.890625 -8.59375 C 23.898438 -8.59375 25.550781 -9.285156 26.84375 -10.671875 C 28.132812 -12.066406 28.78125 -13.972656 28.78125 -16.390625 C 28.78125 -18.804688 28.132812 -20.707031 26.84375 -22.09375 C 25.550781 -23.488281 23.898438 -24.1875 21.890625 -24.1875 C 19.867188 -24.1875 18.210938 -23.488281 16.921875 -22.09375 C 15.640625 -20.707031 15 -18.804688 15 -16.390625 C 15 -13.972656 15.640625 -12.066406 16.921875 -10.671875 C 18.210938 -9.285156 19.867188 -8.59375 21.890625 -8.59375 Z M 21.890625 -8.59375 "/></g></g></g><g fill="#a88aed" fill-opacity="1"><g transform="translate(272.820474, 219.628212)"><g><path d="M 15.59375 0.546875 C 12.851562 0.546875 10.148438 0.234375 7.484375 -0.390625 C 4.828125 -1.015625 2.695312 -1.832031 1.09375 -2.84375 L 4.53125 -10.703125 C 6.019531 -9.773438 7.789062 -9.035156 9.84375 -8.484375 C 11.90625 -7.941406 13.945312 -7.671875 15.96875 -7.671875 C 17.820312 -7.671875 19.140625 -7.863281 19.921875 -8.25 C 20.710938 -8.632812 21.109375 -9.191406 21.109375 -9.921875 C 21.109375 -10.640625 20.632812 -11.148438 19.6875 -11.453125 C 18.738281 -11.753906 17.234375 -12.046875 15.171875 -12.328125 C 12.554688 -12.648438 10.332031 -13.070312 8.5 -13.59375 C 6.664062 -14.125 5.082031 -15.09375 3.75 -16.5 C 2.414062 -17.914062 1.75 -19.894531 1.75 -22.4375 C 1.75 -24.53125 2.375 -26.390625 3.625 -28.015625 C 4.875 -29.648438 6.695312 -30.941406 9.09375 -31.890625 C 11.5 -32.835938 14.375 -33.3125 17.71875 -33.3125 C 20.09375 -33.3125 22.445312 -33.066406 24.78125 -32.578125 C 27.125 -32.097656 29.082031 -31.414062 30.65625 -30.53125 L 27.203125 -22.734375 C 24.304688 -24.347656 21.164062 -25.15625 17.78125 -25.15625 C 15.96875 -25.15625 14.632812 -24.941406 13.78125 -24.515625 C 12.9375 -24.097656 12.515625 -23.546875 12.515625 -22.859375 C 12.515625 -22.085938 12.976562 -21.550781 13.90625 -21.25 C 14.832031 -20.945312 16.363281 -20.632812 18.5 -20.3125 C 21.207031 -19.914062 23.445312 -19.453125 25.21875 -18.921875 C 26.988281 -18.398438 28.53125 -17.441406 29.84375 -16.046875 C 31.15625 -14.660156 31.8125 -12.71875 31.8125 -10.21875 C 31.8125 -8.164062 31.1875 -6.320312 29.9375 -4.6875 C 28.6875 -3.050781 26.835938 -1.769531 24.390625 -0.84375 C 21.953125 0.0820312 19.019531 0.546875 15.59375 0.546875 Z M 15.59375 0.546875 "/></g></g></g><g clip-path="url(#8d6cb0dc6b)"><g transform="matrix(1, 0, 0, 1, 217, 168)"><g clip-path="url(#c896a96692)"><g clip-path="url(#3b1c90a960)"><path fill="#fffffc" d="M 0.328125 0.9375 L 27.800781 0.9375 L 27.800781 18.925781 L 0.328125 18.925781 Z M 0.328125 0.9375 " fill-opacity="1" fill-rule="nonzero"/></g></g></g></g><path fill="#cbd83b" d="M 106.621094 174.535156 C 106.621094 174.535156 106.296875 174.644531 105.816406 174.804688 C 105.335938 174.972656 104.695312 175.195312 104.058594 175.425781 C 103.421875 175.652344 102.785156 175.886719 102.316406 176.070312 C 102.082031 176.160156 101.886719 176.238281 101.75 176.289062 C 101.617188 176.34375 101.542969 176.375 101.542969 176.375 L 100.824219 174.628906 C 100.824219 174.628906 100.90625 174.597656 101.054688 174.539062 C 101.195312 174.484375 101.398438 174.40625 101.640625 174.308594 C 102.125 174.125 102.773438 173.882812 103.417969 173.652344 C 104.066406 173.417969 104.71875 173.191406 105.203125 173.023438 C 105.691406 172.859375 106.019531 172.75 106.019531 172.75 L 106.621094 174.535156 " fill-opacity="1" fill-rule="nonzero"/><path fill="#cbd83b" d="M 116.546875 171.523438 C 116.546875 171.523438 116.464844 171.546875 116.320312 171.585938 C 116.179688 171.625 115.972656 171.683594 115.730469 171.753906 C 115.238281 171.890625 114.582031 172.070312 113.929688 172.261719 C 113.277344 172.449219 112.625 172.644531 112.136719 172.789062 C 111.648438 172.933594 111.324219 173.03125 111.324219 173.03125 L 110.777344 171.230469 C 110.777344 171.230469 111.105469 171.128906 111.597656 170.980469 C 112.089844 170.835938 112.746094 170.640625 113.40625 170.453125 C 114.066406 170.257812 114.726562 170.074219 115.222656 169.9375 C 115.46875 169.867188 115.675781 169.808594 115.820312 169.769531 C 115.964844 169.730469 116.046875 169.707031 116.046875 169.707031 L 116.546875 171.523438 " fill-opacity="1" fill-rule="nonzero"/><path fill="#cbd83b" d="M 126.625 169.015625 C 126.625 169.015625 126.292969 169.089844 125.792969 169.199219 C 125.296875 169.316406 124.636719 169.472656 123.972656 169.628906 C 123.3125 169.789062 122.652344 169.949219 122.15625 170.066406 C 121.90625 170.128906 121.703125 170.179688 121.558594 170.214844 C 121.414062 170.253906 121.332031 170.273438 121.332031 170.273438 L 120.875 168.445312 C 120.875 168.445312 120.957031 168.421875 121.101562 168.386719 C 121.246094 168.347656 121.453125 168.296875 121.707031 168.238281 C 122.203125 168.117188 122.871094 167.953125 123.539062 167.792969 C 124.203125 167.636719 124.871094 167.480469 125.375 167.363281 C 125.875 167.25 126.210938 167.175781 126.210938 167.175781 L 126.625 169.015625 " fill-opacity="1" fill-rule="nonzero"/><path fill="#cbd83b" d="M 136.804688 166.941406 C 136.804688 166.941406 136.46875 167.003906 135.96875 167.097656 C 135.464844 167.1875 134.796875 167.3125 134.128906 167.445312 C 133.460938 167.574219 132.792969 167.703125 132.292969 167.804688 C 131.792969 167.90625 131.460938 167.976562 131.460938 167.976562 L 131.082031 166.128906 C 131.082031 166.128906 131.417969 166.058594 131.921875 165.957031 C 132.425781 165.851562 133.097656 165.726562 133.773438 165.59375 C 134.445312 165.460938 135.117188 165.335938 135.625 165.242188 C 136.128906 165.148438 136.464844 165.085938 136.464844 165.085938 L 136.804688 166.941406 " fill-opacity="1" fill-rule="nonzero"/><path fill="#cbd83b" d="M 147.0625 165.285156 C 147.0625 165.285156 146.726562 165.332031 146.21875 165.40625 C 145.96875 165.441406 145.671875 165.484375 145.355469 165.527344 C 145.042969 165.578125 144.707031 165.628906 144.367188 165.679688 C 143.695312 165.78125 143.023438 165.886719 142.519531 165.964844 C 142.015625 166.046875 141.679688 166.101562 141.679688 166.101562 L 141.378906 164.242188 C 141.378906 164.242188 141.714844 164.1875 142.222656 164.101562 C 142.730469 164.023438 143.410156 163.917969 144.085938 163.816406 C 144.425781 163.765625 144.761719 163.710938 145.082031 163.664062 C 145.398438 163.617188 145.695312 163.578125 145.949219 163.539062 C 146.457031 163.464844 146.796875 163.417969 146.796875 163.417969 L 147.0625 165.285156 " fill-opacity="1" fill-rule="nonzero"/><path fill="#cbd83b" d="M 157.378906 164.03125 C 157.378906 164.03125 157.039062 164.066406 156.53125 164.113281 C 156.023438 164.171875 155.347656 164.246094 154.671875 164.320312 C 154.332031 164.359375 153.996094 164.394531 153.679688 164.429688 C 153.359375 164.46875 153.066406 164.503906 152.8125 164.535156 C 152.304688 164.597656 151.96875 164.636719 151.96875 164.636719 L 151.738281 162.765625 C 151.738281 162.765625 152.078125 162.726562 152.589844 162.664062 C 152.84375 162.632812 153.140625 162.597656 153.460938 162.558594 C 153.78125 162.523438 154.121094 162.484375 154.460938 162.445312 C 155.140625 162.371094 155.824219 162.296875 156.335938 162.242188 C 156.84375 162.191406 157.1875 162.15625 157.1875 162.15625 L 157.378906 164.03125 " fill-opacity="1" fill-rule="nonzero"/><path fill="#cbd83b" d="M 167.734375 163.175781 C 167.734375 163.175781 167.394531 163.199219 166.886719 163.230469 C 166.628906 163.246094 166.332031 163.265625 166.015625 163.285156 C 165.695312 163.308594 165.359375 163.335938 165.019531 163.363281 C 164.339844 163.414062 163.660156 163.464844 163.152344 163.503906 C 162.898438 163.519531 162.6875 163.539062 162.539062 163.550781 C 162.390625 163.566406 162.304688 163.574219 162.304688 163.574219 L 162.148438 161.695312 C 162.148438 161.695312 162.234375 161.6875 162.382812 161.671875 C 162.53125 161.660156 162.746094 161.640625 163.003906 161.625 C 163.515625 161.585938 164.199219 161.535156 164.882812 161.480469 C 165.222656 161.457031 165.5625 161.429688 165.882812 161.40625 C 166.203125 161.386719 166.503906 161.367188 166.761719 161.351562 C 167.273438 161.316406 167.617188 161.296875 167.617188 161.296875 L 167.734375 163.175781 " fill-opacity="1" fill-rule="nonzero"/><path fill="#cbd83b" d="M 178.117188 162.71875 C 178.117188 162.71875 177.777344 162.726562 177.265625 162.742188 C 176.757812 162.757812 176.074219 162.769531 175.394531 162.796875 C 174.035156 162.851562 172.675781 162.90625 172.675781 162.90625 L 172.589844 161.023438 C 172.589844 161.023438 173.960938 160.96875 175.328125 160.914062 C 176.015625 160.886719 176.699219 160.875 177.214844 160.859375 C 177.726562 160.84375 178.070312 160.835938 178.070312 160.835938 L 178.117188 162.71875 " fill-opacity="1" fill-rule="nonzero"/><path fill="#cbd83b" d="M 188.507812 162.65625 C 188.507812 162.65625 188.167969 162.652344 187.65625 162.648438 C 187.148438 162.644531 186.46875 162.632812 185.785156 162.632812 C 184.425781 162.636719 183.066406 162.636719 183.066406 162.636719 L 183.050781 160.753906 C 183.050781 160.753906 184.421875 160.75 185.792969 160.746094 C 186.476562 160.746094 187.164062 160.757812 187.675781 160.761719 C 188.191406 160.769531 188.53125 160.773438 188.53125 160.773438 L 188.507812 162.65625 " fill-opacity="1" fill-rule="nonzero"/><path fill="#cbd83b" d="M 198.894531 162.996094 C 198.894531 162.996094 198.554688 162.976562 198.046875 162.949219 C 197.535156 162.925781 196.855469 162.886719 196.175781 162.863281 C 194.816406 162.8125 193.457031 162.761719 193.457031 162.761719 L 193.515625 160.878906 C 193.515625 160.878906 194.882812 160.929688 196.253906 160.980469 C 196.941406 161.003906 197.625 161.042969 198.136719 161.066406 C 198.652344 161.09375 198.992188 161.113281 198.992188 161.113281 L 198.894531 162.996094 " fill-opacity="1" fill-rule="nonzero"/><path fill="#cbd83b" d="M 209.261719 163.726562 C 209.261719 163.726562 208.921875 163.695312 208.414062 163.648438 C 207.90625 163.601562 207.226562 163.550781 206.550781 163.496094 C 205.871094 163.441406 205.191406 163.390625 204.683594 163.347656 C 204.429688 163.328125 204.21875 163.316406 204.070312 163.304688 C 203.917969 163.296875 203.835938 163.289062 203.835938 163.289062 L 203.96875 161.410156 C 203.96875 161.410156 204.050781 161.417969 204.203125 161.425781 C 204.351562 161.433594 204.5625 161.449219 204.820312 161.46875 C 205.332031 161.511719 206.015625 161.5625 206.699219 161.617188 C 207.382812 161.671875 208.066406 161.722656 208.578125 161.769531 C 209.089844 161.816406 209.429688 161.847656 209.429688 161.847656 L 209.261719 163.726562 " fill-opacity="1" fill-rule="nonzero"/><path fill="#cbd83b" d="M 219.59375 164.851562 C 219.59375 164.851562 218.242188 164.6875 216.890625 164.519531 C 216.550781 164.480469 216.214844 164.441406 215.898438 164.402344 C 215.582031 164.367188 215.285156 164.335938 215.03125 164.308594 C 214.523438 164.253906 214.1875 164.214844 214.1875 164.214844 L 214.390625 162.34375 C 214.390625 162.34375 214.730469 162.378906 215.242188 162.433594 C 215.496094 162.460938 215.792969 162.496094 216.113281 162.527344 C 216.433594 162.566406 216.773438 162.609375 217.113281 162.648438 C 218.472656 162.816406 219.832031 162.984375 219.832031 162.984375 L 219.59375 164.851562 " fill-opacity="1" fill-rule="nonzero"/><path fill="#cbd83b" d="M 229.871094 166.386719 C 229.871094 166.386719 229.535156 166.328125 229.03125 166.242188 C 228.527344 166.160156 227.859375 166.042969 227.183594 165.945312 C 225.839844 165.738281 224.496094 165.53125 224.496094 165.53125 L 224.769531 163.667969 C 224.769531 163.667969 226.125 163.875 227.480469 164.082031 C 228.15625 164.183594 228.832031 164.296875 229.339844 164.382812 C 229.84375 164.46875 230.183594 164.527344 230.183594 164.527344 L 229.871094 166.386719 " fill-opacity="1" fill-rule="nonzero"/><path fill="#cbd83b" d="M 240.085938 168.300781 C 240.085938 168.300781 238.75 168.03125 237.417969 167.765625 C 236.75 167.632812 236.082031 167.492188 235.578125 167.40625 C 235.078125 167.3125 234.742188 167.25 234.742188 167.25 L 235.089844 165.398438 C 235.089844 165.398438 235.425781 165.460938 235.933594 165.554688 C 236.4375 165.640625 237.109375 165.78125 237.78125 165.914062 C 239.125 166.183594 240.46875 166.453125 240.46875 166.453125 L 240.085938 168.300781 " fill-opacity="1" fill-rule="nonzero"/><path fill="#cbd83b" d="M 250.214844 170.621094 C 250.214844 170.621094 249.882812 170.539062 249.390625 170.414062 C 249.140625 170.351562 248.851562 170.277344 248.542969 170.203125 C 248.234375 170.128906 247.902344 170.050781 247.570312 169.972656 C 246.246094 169.664062 244.917969 169.355469 244.917969 169.355469 L 245.339844 167.515625 C 245.339844 167.515625 246.671875 167.828125 248.007812 168.140625 C 248.339844 168.21875 248.675781 168.296875 248.988281 168.371094 C 249.296875 168.445312 249.589844 168.519531 249.839844 168.582031 C 250.335938 168.707031 250.667969 168.792969 250.667969 168.792969 L 250.214844 170.621094 " fill-opacity="1" fill-rule="nonzero"/><path fill="#cbd83b" d="M 260.25 173.320312 C 260.25 173.320312 258.941406 172.945312 257.632812 172.570312 C 257.46875 172.527344 257.304688 172.480469 257.144531 172.433594 C 256.980469 172.390625 256.824219 172.347656 256.667969 172.304688 C 256.363281 172.222656 256.074219 172.144531 255.828125 172.078125 C 255.335938 171.945312 255.003906 171.859375 255.003906 171.859375 L 255.496094 170.039062 C 255.496094 170.039062 255.824219 170.128906 256.320312 170.261719 C 256.570312 170.328125 256.859375 170.40625 257.167969 170.488281 C 257.324219 170.53125 257.484375 170.574219 257.648438 170.617188 C 257.808594 170.664062 257.972656 170.710938 258.140625 170.757812 C 259.457031 171.132812 260.773438 171.511719 260.773438 171.511719 L 260.25 173.320312 " fill-opacity="1" fill-rule="nonzero"/><path fill="#cbd83b" d="M 270.175781 176.394531 C 270.175781 176.394531 268.878906 175.976562 267.585938 175.5625 C 266.9375 175.351562 266.289062 175.144531 265.804688 174.988281 C 265.316406 174.839844 264.992188 174.738281 264.992188 174.738281 L 265.546875 172.9375 C 265.546875 172.9375 265.875 173.039062 266.367188 173.1875 C 266.855469 173.34375 267.507812 173.554688 268.160156 173.765625 C 269.464844 174.1875 270.769531 174.605469 270.769531 174.605469 L 270.175781 176.394531 " fill-opacity="1" fill-rule="nonzero"/><g clip-path="url(#5e9cef597d)"><path fill="#cbd83b" d="M 98.574219 176.769531 C 98.574219 177.382812 97.574219 177.882812 96.34375 177.882812 C 95.109375 177.882812 94.113281 177.382812 94.113281 176.769531 C 94.113281 176.152344 95.109375 175.652344 96.34375 175.652344 C 97.574219 175.652344 98.574219 176.152344 98.574219 176.769531 " fill-opacity="1" fill-rule="nonzero"/></g><g clip-path="url(#4708d07020)"><path fill="#cbd83b" d="M 96.34375 162.949219 C 94.773438 162.949219 93.5 161.675781 93.5 160.105469 C 93.5 158.53125 94.773438 157.257812 96.34375 157.257812 C 97.914062 157.257812 99.1875 158.53125 99.1875 160.105469 C 99.1875 161.675781 97.914062 162.949219 96.34375 162.949219 Z M 101.855469 159.582031 C 101.601562 152.566406 91.082031 152.566406 90.832031 159.582031 C 90.609375 165.839844 96.34375 173.730469 96.34375 173.730469 C 96.34375 173.730469 102.078125 165.839844 101.855469 159.582031 " fill-opacity="1" fill-rule="nonzero"/></g><g clip-path="url(#6449fbaf23)"><path fill="#cbd83b" d="M 276.945312 176.769531 C 276.945312 177.382812 275.949219 177.882812 274.714844 177.882812 C 273.484375 177.882812 272.484375 177.382812 272.484375 176.769531 C 272.484375 176.152344 273.484375 175.652344 274.714844 175.652344 C 275.949219 175.652344 276.945312 176.152344 276.945312 176.769531 " fill-opacity="1" fill-rule="nonzero"/></g><g clip-path="url(#9acd2c1117)"><path fill="#cbd83b" d="M 274.714844 162.949219 C 273.144531 162.949219 271.871094 161.675781 271.871094 160.105469 C 271.871094 158.53125 273.144531 157.257812 274.714844 157.257812 C 276.285156 157.257812 277.5625 158.53125 277.5625 160.105469 C 277.5625 161.675781 276.285156 162.949219 274.714844 162.949219 Z M 280.226562 159.582031 C 279.976562 152.566406 269.457031 152.566406 269.203125 159.582031 C 268.980469 165.839844 274.714844 173.730469 274.714844 173.730469 C 274.714844 173.730469 280.453125 165.839844 280.226562 159.582031 " fill-opacity="1" fill-rule="nonzero"/></g><path fill="#cbd83b" d="M 189.664062 174.578125 L 191.632812 173.792969 C 192.398438 173.488281 193 172.875 193.296875 172.105469 L 199.984375 154.65625 C 200.148438 154.230469 200.558594 153.945312 201.015625 153.949219 L 205.660156 153.964844 C 207.523438 153.976562 208.96875 153.410156 210.003906 152.78125 C 211.210938 152.046875 211.117188 150.265625 209.839844 149.660156 C 208.746094 149.140625 207.246094 148.734375 205.398438 148.9375 L 200.78125 149.441406 C 200.328125 149.492188 199.886719 149.253906 199.679688 148.84375 L 191.203125 132.191406 C 190.828125 131.457031 190.164062 130.910156 189.371094 130.6875 L 187.328125 130.109375 C 187.019531 130.023438 186.742188 130.320312 186.84375 130.621094 L 189.058594 137.113281 C 188.597656 137.242188 188.269531 137.671875 188.285156 138.164062 C 188.304688 138.757812 188.828125 139.21875 189.421875 139.1875 L 189.761719 139.171875 L 191.15625 143.261719 C 190.757812 143.425781 190.484375 143.828125 190.503906 144.285156 C 190.53125 144.871094 191.050781 145.324219 191.636719 145.292969 L 191.847656 145.28125 L 193.535156 150.226562 L 177.253906 151.996094 C 176.636719 152.0625 176.023438 151.828125 175.609375 151.367188 L 172 147.335938 C 171.8125 147.125 171.464844 146.972656 171.046875 146.917969 L 169.972656 146.773438 C 169.808594 146.753906 169.65625 146.84375 169.707031 146.929688 L 170.800781 148.8125 C 170.550781 148.855469 170.371094 148.988281 170.378906 149.136719 C 170.386719 149.308594 170.644531 149.433594 170.957031 149.417969 L 171.148438 149.40625 L 171.839844 150.59375 C 171.621094 150.648438 171.472656 150.769531 171.480469 150.90625 C 171.488281 151.078125 171.746094 151.203125 172.058594 151.1875 L 172.179688 151.179688 L 173.320312 153.140625 L 172.390625 155.210938 L 172.269531 155.21875 C 171.960938 155.234375 171.714844 155.386719 171.722656 155.558594 C 171.730469 155.691406 171.894531 155.800781 172.113281 155.832031 L 171.550781 157.082031 L 171.359375 157.089844 C 171.046875 157.109375 170.804688 157.257812 170.8125 157.429688 C 170.820312 157.578125 171.015625 157.691406 171.269531 157.710938 L 170.375 159.695312 C 170.335938 159.789062 170.496094 159.863281 170.65625 159.824219 L 171.710938 159.570312 C 172.121094 159.46875 172.449219 159.28125 172.617188 159.050781 L 175.78125 154.667969 C 176.144531 154.164062 176.730469 153.867188 177.351562 153.871094 L 193.726562 153.925781 L 192.566406 159.019531 L 192.359375 159.03125 C 191.773438 159.058594 191.300781 159.566406 191.335938 160.152344 C 191.363281 160.609375 191.679688 160.980469 192.09375 161.101562 L 191.132812 165.316406 L 190.792969 165.332031 C 190.199219 165.363281 189.726562 165.875 189.769531 166.46875 C 189.808594 166.964844 190.179688 167.355469 190.648438 167.433594 L 189.128906 174.121094 C 189.054688 174.433594 189.363281 174.699219 189.664062 174.578125 " fill-opacity="1" fill-rule="nonzero"/><g fill="#a88aed" fill-opacity="1"><g transform="translate(70.348622, 237.206161)"><g><path d="M 5.65625 -1.90625 L 1.671875 -1.90625 L 0.8125 0 L 0.015625 0 L 3.296875 -7.15625 L 4.046875 -7.15625 L 7.3125 0 L 6.515625 0 Z M 5.390625 -2.53125 L 3.65625 -6.375 L 1.9375 -2.53125 Z M 5.390625 -2.53125 "/></g></g></g><g fill="#a88aed" fill-opacity="1"><g transform="translate(78.91338, 237.206161)"><g><path d="M 6.21875 -3.578125 L 6.9375 -3.578125 L 6.9375 -0.84375 C 6.601562 -0.550781 6.207031 -0.328125 5.75 -0.171875 C 5.289062 -0.015625 4.8125 0.0625 4.3125 0.0625 C 3.59375 0.0625 2.945312 -0.09375 2.375 -0.40625 C 1.800781 -0.71875 1.347656 -1.148438 1.015625 -1.703125 C 0.691406 -2.265625 0.53125 -2.890625 0.53125 -3.578125 C 0.53125 -4.265625 0.691406 -4.882812 1.015625 -5.4375 C 1.347656 -6 1.800781 -6.4375 2.375 -6.75 C 2.945312 -7.0625 3.59375 -7.21875 4.3125 -7.21875 C 4.863281 -7.21875 5.367188 -7.128906 5.828125 -6.953125 C 6.285156 -6.785156 6.671875 -6.53125 6.984375 -6.1875 L 6.515625 -5.703125 C 5.941406 -6.265625 5.21875 -6.546875 4.34375 -6.546875 C 3.769531 -6.546875 3.25 -6.414062 2.78125 -6.15625 C 2.3125 -5.90625 1.941406 -5.550781 1.671875 -5.09375 C 1.410156 -4.644531 1.28125 -4.140625 1.28125 -3.578125 C 1.28125 -3.023438 1.410156 -2.519531 1.671875 -2.0625 C 1.941406 -1.613281 2.304688 -1.257812 2.765625 -1 C 3.234375 -0.738281 3.757812 -0.609375 4.34375 -0.609375 C 5.070312 -0.609375 5.695312 -0.796875 6.21875 -1.171875 Z M 6.21875 -3.578125 "/></g></g></g><g fill="#a88aed" fill-opacity="1"><g transform="translate(88.050388, 237.206161)"><g><path d="M 6.234375 -0.65625 L 6.234375 0 L 1.171875 0 L 1.171875 -7.15625 L 6.078125 -7.15625 L 6.078125 -6.515625 L 1.921875 -6.515625 L 1.921875 -3.953125 L 5.625 -3.953125 L 5.625 -3.3125 L 1.921875 -3.3125 L 1.921875 -0.65625 Z M 6.234375 -0.65625 "/></g></g></g><g fill="#a88aed" fill-opacity="1"><g transform="translate(96.124652, 237.206161)"><g><path d="M 7.15625 -7.15625 L 7.15625 0 L 6.53125 0 L 1.921875 -5.8125 L 1.921875 0 L 1.171875 0 L 1.171875 -7.15625 L 1.796875 -7.15625 L 6.40625 -1.34375 L 6.40625 -7.15625 Z M 7.15625 -7.15625 "/></g></g></g><g fill="#a88aed" fill-opacity="1"><g transform="translate(105.670397, 237.206161)"><g><path d="M 4.28125 0.0625 C 3.570312 0.0625 2.929688 -0.09375 2.359375 -0.40625 C 1.785156 -0.71875 1.335938 -1.148438 1.015625 -1.703125 C 0.691406 -2.265625 0.53125 -2.890625 0.53125 -3.578125 C 0.53125 -4.265625 0.691406 -4.882812 1.015625 -5.4375 C 1.335938 -6 1.785156 -6.4375 2.359375 -6.75 C 2.929688 -7.0625 3.570312 -7.21875 4.28125 -7.21875 C 4.820312 -7.21875 5.316406 -7.128906 5.765625 -6.953125 C 6.210938 -6.773438 6.59375 -6.519531 6.90625 -6.1875 L 6.421875 -5.703125 C 5.867188 -6.265625 5.164062 -6.546875 4.3125 -6.546875 C 3.738281 -6.546875 3.21875 -6.414062 2.75 -6.15625 C 2.289062 -5.894531 1.929688 -5.539062 1.671875 -5.09375 C 1.410156 -4.644531 1.28125 -4.140625 1.28125 -3.578125 C 1.28125 -3.023438 1.410156 -2.519531 1.671875 -2.0625 C 1.929688 -1.613281 2.289062 -1.257812 2.75 -1 C 3.21875 -0.738281 3.738281 -0.609375 4.3125 -0.609375 C 5.164062 -0.609375 5.867188 -0.894531 6.421875 -1.46875 L 6.90625 -1 C 6.59375 -0.65625 6.207031 -0.390625 5.75 -0.203125 C 5.300781 -0.0234375 4.8125 0.0625 4.28125 0.0625 Z M 4.28125 0.0625 "/></g></g></g><g fill="#a88aed" fill-opacity="1"><g transform="translate(114.255594, 237.206161)"><g><path d="M 1.171875 -7.15625 L 1.921875 -7.15625 L 1.921875 0 L 1.171875 0 Z M 1.171875 -7.15625 "/></g></g></g><g fill="#a88aed" fill-opacity="1"><g transform="translate(118.579595, 237.206161)"><g><path d="M 5.65625 -1.90625 L 1.671875 -1.90625 L 0.8125 0 L 0.015625 0 L 3.296875 -7.15625 L 4.046875 -7.15625 L 7.3125 0 L 6.515625 0 Z M 5.390625 -2.53125 L 3.65625 -6.375 L 1.9375 -2.53125 Z M 5.390625 -2.53125 "/></g></g></g><g fill="#a88aed" fill-opacity="1"><g transform="translate(127.144353, 237.206161)"><g/></g></g><g fill="#a88aed" fill-opacity="1"><g transform="translate(131.059617, 237.206161)"><g><path d="M 1.171875 -7.15625 L 4.078125 -7.15625 C 4.835938 -7.15625 5.503906 -7.003906 6.078125 -6.703125 C 6.660156 -6.398438 7.113281 -5.976562 7.4375 -5.4375 C 7.757812 -4.894531 7.921875 -4.273438 7.921875 -3.578125 C 7.921875 -2.878906 7.757812 -2.257812 7.4375 -1.71875 C 7.113281 -1.175781 6.660156 -0.753906 6.078125 -0.453125 C 5.503906 -0.148438 4.835938 0 4.078125 0 L 1.171875 0 Z M 4.046875 -0.65625 C 4.671875 -0.65625 5.21875 -0.78125 5.6875 -1.03125 C 6.15625 -1.28125 6.519531 -1.625 6.78125 -2.0625 C 7.039062 -2.5 7.171875 -3.003906 7.171875 -3.578125 C 7.171875 -4.148438 7.039062 -4.65625 6.78125 -5.09375 C 6.519531 -5.539062 6.15625 -5.890625 5.6875 -6.140625 C 5.21875 -6.390625 4.671875 -6.515625 4.046875 -6.515625 L 1.921875 -6.515625 L 1.921875 -0.65625 Z M 4.046875 -0.65625 "/></g></g></g><g fill="#a88aed" fill-opacity="1"><g transform="translate(140.738205, 237.206161)"><g><path d="M 6.234375 -0.65625 L 6.234375 0 L 1.171875 0 L 1.171875 -7.15625 L 6.078125 -7.15625 L 6.078125 -6.515625 L 1.921875 -6.515625 L 1.921875 -3.953125 L 5.625 -3.953125 L 5.625 -3.3125 L 1.921875 -3.3125 L 1.921875 -0.65625 Z M 6.234375 -0.65625 "/></g></g></g><g fill="#a88aed" fill-opacity="1"><g transform="translate(263.712351, 237.206161)"><g><path d="M 7.125 -7.15625 L 3.953125 0 L 3.203125 0 L 0.03125 -7.15625 L 0.84375 -7.15625 L 3.59375 -0.9375 L 6.359375 -7.15625 Z M 7.125 -7.15625 "/></g></g></g><g fill="#a88aed" fill-opacity="1"><g transform="translate(272.082949, 237.206161)"><g><path d="M 1.171875 -7.15625 L 1.921875 -7.15625 L 1.921875 0 L 1.171875 0 Z M 1.171875 -7.15625 "/></g></g></g><g fill="#a88aed" fill-opacity="1"><g transform="translate(276.40695, 237.206161)"><g><path d="M 5.65625 -1.90625 L 1.671875 -1.90625 L 0.8125 0 L 0.015625 0 L 3.296875 -7.15625 L 4.046875 -7.15625 L 7.3125 0 L 6.515625 0 Z M 5.390625 -2.53125 L 3.65625 -6.375 L 1.9375 -2.53125 Z M 5.390625 -2.53125 "/></g></g></g><g fill="#a88aed" fill-opacity="1"><g transform="translate(284.971707, 237.206161)"><g><path d="M 1.9375 0.0625 C 1.519531 0.0625 1.140625 -0.0234375 0.796875 -0.203125 C 0.453125 -0.378906 0.171875 -0.632812 -0.046875 -0.96875 L 0.40625 -1.46875 C 0.800781 -0.882812 1.3125 -0.59375 1.9375 -0.59375 C 2.832031 -0.59375 3.28125 -1.117188 3.28125 -2.171875 L 3.28125 -6.515625 L 0.65625 -6.515625 L 0.65625 -7.15625 L 4.015625 -7.15625 L 4.015625 -2.203125 C 4.015625 -1.453125 3.835938 -0.882812 3.484375 -0.5 C 3.140625 -0.125 2.625 0.0625 1.9375 0.0625 Z M 1.9375 0.0625 "/></g></g></g><g fill="#a88aed" fill-opacity="1"><g transform="translate(291.329232, 237.206161)"><g><path d="M 6.234375 -0.65625 L 6.234375 0 L 1.171875 0 L 1.171875 -7.15625 L 6.078125 -7.15625 L 6.078125 -6.515625 L 1.921875 -6.515625 L 1.921875 -3.953125 L 5.625 -3.953125 L 5.625 -3.3125 L 1.921875 -3.3125 L 1.921875 -0.65625 Z M 6.234375 -0.65625 "/></g></g></g><g fill="#a88aed" fill-opacity="1"><g transform="translate(299.403496, 237.206161)"><g><path d="M 3.140625 0.0625 C 2.609375 0.0625 2.097656 -0.0195312 1.609375 -0.1875 C 1.117188 -0.363281 0.742188 -0.59375 0.484375 -0.875 L 0.78125 -1.453125 C 1.039062 -1.191406 1.382812 -0.976562 1.8125 -0.8125 C 2.238281 -0.65625 2.679688 -0.578125 3.140625 -0.578125 C 3.785156 -0.578125 4.265625 -0.695312 4.578125 -0.9375 C 4.898438 -1.175781 5.0625 -1.484375 5.0625 -1.859375 C 5.0625 -2.140625 4.972656 -2.363281 4.796875 -2.53125 C 4.628906 -2.707031 4.414062 -2.835938 4.15625 -2.921875 C 3.90625 -3.015625 3.554688 -3.117188 3.109375 -3.234375 C 2.566406 -3.367188 2.132812 -3.5 1.8125 -3.625 C 1.5 -3.75 1.226562 -3.941406 1 -4.203125 C 0.769531 -4.460938 0.65625 -4.816406 0.65625 -5.265625 C 0.65625 -5.617188 0.75 -5.941406 0.9375 -6.234375 C 1.132812 -6.535156 1.429688 -6.773438 1.828125 -6.953125 C 2.222656 -7.128906 2.710938 -7.21875 3.296875 -7.21875 C 3.703125 -7.21875 4.101562 -7.160156 4.5 -7.046875 C 4.894531 -6.941406 5.234375 -6.789062 5.515625 -6.59375 L 5.265625 -5.984375 C 4.960938 -6.179688 4.640625 -6.328125 4.296875 -6.421875 C 3.953125 -6.523438 3.617188 -6.578125 3.296875 -6.578125 C 2.671875 -6.578125 2.195312 -6.457031 1.875 -6.21875 C 1.5625 -5.976562 1.40625 -5.664062 1.40625 -5.28125 C 1.40625 -4.988281 1.488281 -4.753906 1.65625 -4.578125 C 1.832031 -4.410156 2.050781 -4.28125 2.3125 -4.1875 C 2.582031 -4.09375 2.9375 -3.992188 3.375 -3.890625 C 3.90625 -3.753906 4.332031 -3.625 4.65625 -3.5 C 4.976562 -3.375 5.25 -3.179688 5.46875 -2.921875 C 5.695312 -2.671875 5.8125 -2.328125 5.8125 -1.890625 C 5.8125 -1.523438 5.710938 -1.191406 5.515625 -0.890625 C 5.328125 -0.597656 5.03125 -0.363281 4.625 -0.1875 C 4.21875 -0.0195312 3.722656 0.0625 3.140625 0.0625 Z M 3.140625 0.0625 "/></g></g></g></svg>